<svg width="122" height="41" viewBox="0 0 122 41" xmlns="http://www.w3.org/2000/svg"><g fill="none" fill-rule="evenodd"><rect fill="#5BD0FF" x="95.5" width="26" height="12" rx="3"/><path d="M100.699 8.598c.266-.014.455-.02.832-.02h1.599c1.079 0 1.683-.513 1.683-1.423 0-.423-.136-.748-.403-.995-.175-.163-.325-.228-.656-.299.253-.078.37-.136.513-.273.247-.228.364-.52.364-.917 0-.812-.565-1.267-1.573-1.267h-1.915a9.467 9.467 0 0 1-.438-.013c.033.267.052.5.052.8V7.72c0 .416-.013.605-.058.878zm2.268-3.075h-1.352V4.132h1.346c.26 0 .48.072.624.202.104.097.169.272.169.48 0 .442-.293.709-.787.709zm.046 2.32h-1.398V6.245H103c.299 0 .546.077.708.22.143.13.208.306.208.566 0 .527-.325.813-.903.813zm4.386.858c.546 0 1.001-.168 1.34-.5.162-.162.246-.286.396-.598l-.767-.247a.945.945 0 0 1-.189.338 1.028 1.028 0 0 1-.78.325c-.331 0-.624-.13-.812-.364-.15-.189-.208-.37-.24-.728h2.827c-.013-.15-.013-.169-.013-.182-.02-.442-.065-.676-.189-.988-.26-.65-.858-1.027-1.618-1.027-1.112 0-1.833.786-1.833 1.989 0 1.215.728 1.982 1.878 1.982zm.93-2.418h-1.963c.097-.546.468-.884.975-.884.305 0 .526.085.702.26.162.163.24.338.286.625zm3.151 2.386c.338 0 .533-.033.813-.136l-.117-.69c-.202.111-.306.144-.475.144-.312 0-.429-.117-.429-.436V5.536h.293c.299 0 .422.007.637.039v-.767a3.205 3.205 0 0 1-.516.038l-.414.001v-.202c0-.292.02-.571.046-.799h-.93c.026.234.046.52.046.8v.201h-.24c-.274 0-.397-.007-.586-.039v.767c.215-.032.338-.039.579-.039h.247V7.72c0 .683.299.949 1.046.949zm2.606-.026a2.3 2.3 0 0 0 .604-.078c.267-.072.43-.162.69-.41v.423h.877a5.228 5.228 0 0 1-.052-.812V6.017c0-.442-.085-.689-.306-.897-.28-.273-.656-.383-1.28-.383-.56 0-.923.097-1.242.331-.247.176-.364.345-.513.722l.832.149c.078-.234.136-.325.26-.416.15-.117.416-.188.676-.188.494 0 .747.194.747.572v.331c-.93.02-1.41.084-1.833.26-.448.188-.734.598-.734 1.053 0 .682.48 1.092 1.274 1.092zm.156-.598c-.364 0-.592-.189-.592-.494 0-.507.488-.721 1.73-.748v.325a.775.775 0 0 1-.235.572 1.32 1.32 0 0 1-.903.345z" fill="#FFF" fill-rule="nonzero"/><path d="M15.784 28.42c1.75-5.04 5.25-12.11 7.7-16.66.945-1.75 1.295-3.675-.105-5.11-.42-.42-.7-.385-1.015.105-3.85 5.985-8.96 11.2-12.775 17.43 1.33-4.9 2.59-8.995 3.71-12.355.91-2.765.525-3.99-.84-5.18-.455-.385-.805-.245-1.12.21-3.78 5.145-9.45 14.49-10.745 17.815-.805 2.1-.42 3.29.07 3.815.245.28.455.28.595-.07 2.065-4.69 5.985-10.955 9.1-15.645-1.54 4.655-2.695 9.485-3.01 11.48-.35 2.17.175 3.395 1.33 4.235.28.21.455.105.63-.245 2.52-4.69 6.58-10.045 10.57-14.875a138.54 138.54 0 0 0-.996 1.954l-.39.786c-1.739 3.532-3.237 6.96-3.654 8.6-.595 2.31-.175 3.36.385 3.815.28.245.42.245.56-.105zm4.48 12.32c2.905-1.12 5.39-6.755 7.35-11.445 2.905-1.19 5.355-2.52 6.72-4.69.595-.91.7-1.715.63-2.03-.07-.35-.385-.315-.56-.07a18.634 18.634 0 0 1-6.195 5.39c.381-.88.807-1.814 1.247-2.751l.38-.802a220.82 220.82 0 0 1 3.028-6.072c.91-1.785.63-3.29.14-3.92-.315-.28-.56-.21-.875.245-1.225 1.785-2.73 4.935-4.235 7.525-1.785 3.045-3.535 5.285-4.9 5.18-.805-.07-.875-1.295-.175-3.01.665-1.645 1.435-3.08 2.695-5.11 1.295-2.065 1.505-3.535.665-4.655-.245-.35-.595-.385-.875 0-2.275 3.15-3.99 6.615-4.76 8.855-.805 2.31-.735 4.865 1.785 5.075 1.4.105 2.73-.805 3.815-1.925-.385.84-.735 1.715-1.085 2.52-3.465 1.365-6.44 3.465-7.49 6.615-.7 2.065 0 3.29.7 4.34.665.98 1.33.98 1.995.735zm-1.295-1.925c-.63-.875.945-5.67 5.495-8.295-2.17 5.145-5.04 8.96-5.495 8.295zm25.025-10.29c2.03-.525 5.88-1.4 7.63-1.365.455 0 .455-.245.35-.525-.385-1.05-1.33-1.715-3.08-1.575-1.33.105-3.325.455-5.32.98 2.59-5.6 5.775-10.99 7.595-14.315 1.435-2.59 1.295-4.06.875-4.935-.21-.455-.525-.49-.84-.07-2.135 2.975-7.91 13.58-9.59 17.92-.35.91-.35 1.435-.105 2.03.175.42.595 1.05.91 1.505.385.56.735.56 1.575.35zm13.86.035c2.695-.035 5.39-1.645 6.86-3.78.63-.91.735-1.89.595-2.17-.14-.315-.42-.315-.595-.035-1.505 2.31-4.06 5.11-6.965 4.97-1.855-.105-2.695-2.31-1.575-5.53 2.45 1.995 4.795 1.085 6.51-1.015 1.47-1.785 1.75-3.92 1.12-4.76-.56-.77-1.19-1.295-2.065-1.82-1.75-1.015-5.32.805-7.595 5.32-2.275 4.515-.735 8.89 3.71 8.82zm-1.365-7.315c.07-.175.175-.385.28-.595 1.645-3.325 4.55-5.425 5.285-4.83.49.385-.28 2.205-1.4 3.675-1.015 1.33-2.45 2.835-4.165 1.75zm12.775 7.315a7.374 7.374 0 0 0 6.195-3.85c.595-1.085.63-1.995.49-2.31-.14-.28-.49-.385-.665 0-.875 1.89-2.345 3.99-4.69 4.865 1.26-.84 1.505-2.31 1.575-3.675.105-2.415-.56-5.145-.315-8.365.14-.245.245-.455.385-.665.455-.805.63-1.19.28-1.54-.315-.315-1.12-.175-1.89.525-.735.665-1.085 1.33-1.26 2.695-1.015 1.785-2.59 4.06-4.025 6.02-.035-.28-.035-.56-.07-.84-.035-.56-.315-.7-.735-.35-1.19.98-1.295 3.29-.455 4.865 1.19 2.17 3.15 2.695 5.18 2.625zm-3.605-4.41c1.33-1.89 2.625-3.815 3.64-5.67.14 2.8.665 8.295-.945 8.785-1.155.35-2.17-1.085-2.695-3.115zm14.175 4.41a7.374 7.374 0 0 0 6.195-3.85c.595-1.085.63-1.995.49-2.31-.14-.28-.49-.385-.665 0-.875 1.89-2.345 3.99-4.69 4.865 1.26-.84 1.505-2.31 1.575-3.675.105-2.415-.56-5.145-.315-8.365.14-.245.245-.455.385-.665.455-.805.63-1.19.28-1.54-.315-.315-1.12-.175-1.89.525-.735.665-1.085 1.33-1.26 2.695-1.015 1.785-2.59 4.06-4.025 6.02-.035-.28-.035-.56-.07-.84-.035-.56-.315-.7-.735-.35-1.19.98-1.295 3.29-.455 4.865 1.19 2.17 3.15 2.695 5.18 2.625zm-3.605-4.41c1.33-1.89 2.625-3.815 3.64-5.67.14 2.8.665 8.295-.945 8.785-1.155.35-2.17-1.085-2.695-3.115zm14.385 4.165c2.59-.875 4.795-4.41 5.53-7.385.35-.035.7-.175.945-.455.14-.175.14-.35-.105-.35-.28 0-.49.07-.7.07.035-.28.035-.525.07-.805.21-2.52-.84-2.765-1.645-3.85-.7-.945-1.295-1.26-2.38-1.19-2.1.14-4.235 2.17-5.565 4.55-1.575 2.8-2.1 5.845-.56 7.875 1.4 1.82 3.15 1.96 4.41 1.54zm3.465-8.785c-.56-.525-.945-1.54-.77-2.485.175-1.015.875-1.225 1.05-.105.105.63 0 1.505-.28 2.59zm-6.3 7.385c-.91-.77-.385-3.99 1.085-6.65a12.241 12.241 0 0 1 2.695-3.29c.035 1.295.875 2.52 1.61 3.08.21.175.42.315.665.42-.28.84-.7 1.82-1.225 2.8-1.715 3.22-3.85 4.445-4.83 3.64zm17.92 1.715c2.03 0 4.235-1.785 5.18-3.745.49-1.015.56-1.82.315-2.205-.175-.28-.42-.28-.595.035-1.33 2.45-3.045 4.76-4.48 4.83-1.26.07-1.47-1.575-.56-3.605.805-1.82 2.52-4.41 3.255-5.95.875-1.82-.21-3.535-1.365-3.71-1.155-.175-3.535 1.75-5.11 3.43.385-1.26.42-2.45-.105-3.325-.21-.35-.49-.385-.735 0-2.205 3.255-4.9 8.12-5.6 10.325-.56 1.75-.35 2.905.35 3.605.315.315.525.175.665-.14 1.505-3.29 3.045-6.65 5.11-8.89 2.24-2.45 4.27-3.43 4.62-3.29.63.28-2.45 3.99-3.605 7.42-1.015 3.045-.315 5.215 2.66 5.215z" fill="#FF86A3" fill-rule="nonzero"/></g></svg>